<svg width="32" height="32" viewBox="0 0 32 32" fill="none" xmlns="http://www.w3.org/2000/svg">
<path d="M8 8C3.59783 8 0 11.5978 0 16C0 20.4022 3.59783 24 8 24C10.5867 24 12.8797 22.7739 14.3464 20.8672C13.7597 20.0272 13.2404 19.1724 12.7604 18.3724C11.9071 20.1324 10.0933 21.3333 8 21.3333C5.0395 21.3333 2.66667 18.9605 2.66667 16C2.66667 13.0395 5.0395 10.6667 8 10.6667C9.62963 10.6667 10.7249 11.277 11.8073 12.3594C12.8897 13.4418 13.8568 15.0182 14.8568 16.6849C15.8568 18.3516 16.8897 20.1084 18.3073 21.526C19.7249 22.9437 21.6296 24 24 24C28.4022 24 32 20.4022 32 16C32 11.5978 28.4022 8 24 8C21.4133 8 19.1203 9.22615 17.6536 11.1328C18.2403 11.9728 18.7596 12.8276 19.2396 13.6276C20.0929 11.8676 21.9067 10.6667 24 10.6667C26.9605 10.6667 29.3333 13.0395 29.3333 16C29.3333 18.9605 26.9605 21.3333 24 21.3333C22.3704 21.3333 21.2751 20.723 20.1927 19.6406C19.1103 18.5582 18.1432 16.9818 17.1432 15.3151C16.1432 13.6484 15.1103 11.8916 13.6927 10.474C12.2751 9.05635 10.3704 8 8 8Z" fill="black"/>
</svg>
