<svg width="66" height="66" viewBox="0 0 66 66" fill="none" xmlns="http://www.w3.org/2000/svg">
<rect x="1" y="1" width="64" height="64" rx="20" fill="black" stroke="#F4F5F7"/>
<path d="M33.5 15C23.2988 15 15 22.1349 15 30.904C15 35.8324 17.6931 40.5158 22.2265 43.5163C22.1249 44.3414 21.7053 46.4066 19.978 48.8309C19.8174 49.0568 19.7964 49.352 19.9247 49.5978C20.053 49.8436 20.3088 49.9984 20.5879 50C20.6041 50 20.6186 50 20.6355 50C25.031 49.9992 27.9895 47.3132 28.9319 46.3205C30.4188 46.6436 31.9526 46.808 33.5 46.808C43.7012 46.808 52 39.674 52 30.904C52 22.1341 43.7012 15 33.5 15ZM24.6252 25.3181H42.3748C42.8202 25.3181 43.1816 25.6748 43.1816 26.1161C43.1816 26.5573 42.8202 26.914 42.3748 26.914H24.6252C24.1798 26.914 23.8184 26.5573 23.8184 26.1161C23.8184 25.6748 24.1798 25.3181 24.6252 25.3181ZM21.398 31.702C20.9526 31.702 20.5911 31.3453 20.5911 30.904C20.5911 30.4627 20.9526 30.106 21.398 30.106H35.1136C35.559 30.106 35.9204 30.4627 35.9204 30.904C35.9204 31.3453 35.559 31.702 35.1136 31.702H21.398ZM42.3748 36.49H24.6252C24.1798 36.49 23.8184 36.1333 23.8184 35.692C23.8184 35.2507 24.1798 34.894 24.6252 34.894H42.3748C42.8202 34.894 43.1816 35.2507 43.1816 35.692C43.1816 36.1333 42.8202 36.49 42.3748 36.49ZM45.602 31.702H39.9544C39.5091 31.702 39.1476 31.3453 39.1476 30.904C39.1476 30.4627 39.5091 30.106 39.9544 30.106H45.602C46.0474 30.106 46.4089 30.4627 46.4089 30.904C46.4089 31.3453 46.0474 31.702 45.602 31.702Z" fill="white"/>
</svg>
