<svg width="63" height="63" viewBox="0 0 63 63" fill="none" xmlns="http://www.w3.org/2000/svg">
<path d="M0 20C0 8.9543 8.95431 0 20 0H43C54.0457 0 63 8.95431 63 20V43C63 54.0457 54.0457 63 43 63H20C8.9543 63 0 54.0457 0 43V20Z" fill="black"/>
<path d="M32 14C22.0585 14 14 22.0585 14 32C14 41.9415 22.0585 50 32 50C41.9415 50 50 41.9415 50 32C50 22.0598 41.9415 14.0012 32 14ZM40.2551 39.9603C39.932 40.4909 39.2405 40.6567 38.7124 40.3337C34.486 37.7507 29.1652 37.1672 22.8999 38.5982C22.2956 38.737 21.6938 38.3587 21.5562 37.7544C21.4174 37.1501 21.7945 36.5482 22.4 36.4106C29.2561 34.8446 35.1382 35.5189 39.8829 38.4176C40.4111 38.7431 40.5793 39.4321 40.2551 39.9603ZM42.4573 35.0608C42.0508 35.7216 41.1861 35.9279 40.5265 35.5226C35.6897 32.549 28.3128 31.688 22.5904 33.4248C21.8485 33.6495 21.0649 33.2307 20.8389 32.4901C20.6154 31.7482 21.0342 30.9658 21.7748 30.7398C28.3116 28.7562 36.4389 29.7167 41.9943 33.1312C42.6551 33.5378 42.8639 34.4012 42.4573 35.0608ZM42.6465 29.9562C36.8442 26.511 27.2737 26.1941 21.7343 27.8743C20.845 28.1445 19.9042 27.6422 19.6352 26.7529C19.3662 25.8637 19.8673 24.9228 20.7578 24.6526C27.1165 22.723 37.6856 23.0952 44.3648 27.06C45.1644 27.5353 45.4272 28.5683 44.9531 29.3666C44.4802 30.1675 43.4448 30.4315 42.6465 29.9562Z" fill="#2DBD58"/>
</svg>
