<svg width="24" height="24" viewBox="0 0 24 24" fill="none" xmlns="http://www.w3.org/2000/svg">
<rect width="24" height="24" rx="12" fill="#121212"/>
<rect width="24" height="24" rx="12" fill="url(#paint0_linear)"/>
<path d="M4.8583 11.226L13.1976 7.66423C14.0208 7.29321 16.8125 6.10594 16.8125 6.10594C16.8125 6.10594 18.101 5.58651 17.9936 6.84798C17.9579 7.36741 17.6715 9.18542 17.3852 11.1518L16.4904 16.9769C16.4904 16.9769 16.4188 17.8302 15.8104 17.9786C15.2019 18.127 14.1998 17.4592 14.0208 17.3108C13.8777 17.1995 11.3365 15.5299 10.4059 14.7136C10.1554 14.491 9.86906 14.0458 10.4417 13.5264C11.7302 12.302 13.2692 10.7808 14.1998 9.81615C14.6293 9.37093 15.0588 8.33207 13.2692 9.59354L8.22267 13.1182C8.22267 13.1182 7.65001 13.4893 6.57628 13.1553C5.50254 12.8214 4.24986 12.3762 4.24986 12.3762C4.24986 12.3762 3.39087 11.8197 4.8583 11.226Z" fill="white"/>
<defs>
<linearGradient id="paint0_linear" x1="16.0009" y1="4.00092" x2="10.0009" y2="18" gradientUnits="userSpaceOnUse">
<stop stop-color="#37AEE2"/>
<stop offset="1" stop-color="#1E96C8"/>
</linearGradient>
</defs>
</svg>
