<svg width="48" height="24" viewBox="0 0 48 24" fill="none" xmlns="http://www.w3.org/2000/svg">
<path d="M36.925 0.5C34.105 0.5 31.4417 1.69817 29.5323 3.78421L24 9.133L23.9902 9.12227L21.0233 11.9785L21.0429 11.9999L15.7652 17.1134C14.5119 18.472 12.8473 19.2209 11.075 19.2209C7.41295 19.2209 4.43625 15.9795 4.43625 12C4.43625 8.02048 7.41295 4.77909 11.075 4.77909C12.8473 4.77909 14.5119 5.52796 15.8533 6.98277L18.076 9.133L21.033 6.27673L18.5557 3.88049C16.5582 1.7089 13.9046 0.510732 11.0749 0.510732C5.2392 0.500001 0.5 5.65633 0.5 12C0.5 18.3437 5.2392 23.5 11.075 23.5C13.895 23.5 16.5486 22.3018 18.4677 20.2265L24 14.867L24.0098 14.8777L26.9669 12.0107L26.9571 12L32.2347 6.89722C33.4881 5.52796 35.1527 4.77909 36.925 4.77909C40.5871 4.77909 43.5638 8.02048 43.5638 12C43.5638 15.9795 40.5871 19.2209 36.925 19.2209C35.1527 19.2209 33.4881 18.472 32.1467 17.0279L29.924 14.8776L26.9669 17.7446L29.4442 20.1409C31.4417 22.3125 34.0953 23.4999 36.9153 23.4999C42.7608 23.5 47.5 18.3437 47.5 12C47.5 5.65633 42.7608 0.5 36.925 0.5Z" fill="#F9F9F9"/>
</svg>
